# WaveFront *.obj file (generated by CINEMA 4D)

mtllib ./house2.mtl

v 5.48715400695801 9.93764019012451 -1.00510001182556
v 5.48715400695801 16.02227401733398 -1.00510001182556
v 7.49145412445068 9.93764019012451 -1.00510001182556
v 7.49145412445068 16.02227401733398 -1.00510001182556
v 7.49145412445068 9.93764019012451 1.00510001182556
v 7.49145412445068 16.02227401733398 1.00510001182556
v 5.48715400695801 9.93764019012451 1.00510001182556
v 5.48715400695801 16.02227401733398 1.00510001182556
# 8 vertices

vn 0 0 -1
vn 1 0 0
vn 0 0 1
vn -1 0 0
vn 0 1 0
vn 0 -1 0
# 6 normals

vt 0 0 0
vt 0 1 0
vt 1 1 0
vt 1 0 0
# 4 texture coordinates

o Cube.2
usemtl Mat.1
f 1/1/1 2/2/1 4/3/1 3/4/1
f 3/1/2 4/2/2 6/3/2 5/4/2
f 5/1/3 6/2/3 8/3/3 7/4/3
f 7/1/4 8/2/4 2/3/4 1/4/4
f 2/1/5 8/2/5 6/3/5 4/4/5
f 7/1/6 1/2/6 3/3/6 5/4/6

v -10 7.67871570587158 -10
v -0.01013237982988 15.41891288757324 -10
v 10 7.67871570587158 -10
v -0.01013237982988 15.41891288757324 10
v 10 7.67871570587158 10
v -10 7.67871570587158 10
v -10.56072616577148 8.40241527557373 -10
v -0.0107001690194 16.57662582397461 -10
v 10.56001567840576 8.40296459197998 -10
v -0.0107001690194 16.57662582397461 10
v 10.56001567840576 8.40296459197998 10
v -10.56072616577148 8.40241527557373 10
v 10.6729211807251 7.1583890914917 -10
v 10.6729211807251 7.1583890914917 10
v 11.23293685913086 7.8826379776001 -10
v 11.23293685913086 7.8826379776001 10
v -10.6724100112915 7.15772914886475 -10
v -10.6724100112915 7.15772914886475 10
v -11.23313617706299 7.88142871856689 -10
v -11.23313617706299 7.88142871856689 10
# 20 vertices

vn 0 0 0
vn 0.61169964075088 0.79109013080597 0
vn -0.61247527599335 0.79048973321915 0
vn 0.32365897297859 -0.946173787117 0
vn -0.32319489121437 -0.94633239507675 0
vn 0.79109013080597 -0.61169964075088 0
vn -0.79048985242844 -0.61247509717941 0
vn -0.61169964075088 -0.79109013080597 0
vn 0.61247527599335 -0.79048973321915 0
vn -0.61247527599335 0.79048973321915 0
# 10 normals

vt 0.00003051757812 0.99996948242188 0.0009765625
vt 0.00003051757812 0.99996948242188 0.001953125
# 2 texture coordinates

o Cube.1
usemtl Mat.2
f 9/1/1 10/2/1 11/4/1
f 13/1/3 12/3/3 14/4/3

usemtl Mat.1
f 17/1/8 16/1/8 18/3/8 19/4/8
f 20/1/9 18/2/9 16/3/9 15/4/9
f 17/1/1 11/1/1 10/1/1 16/1/1
f 18/3/3 12/3/3 13/4/3 19/4/3
f 24/4/12 22/4/12 21/1/12 23/1/12
f 20/1/3 14/1/3 12/2/3 18/2/3
f 16/3/1 10/3/1 9/4/1 15/4/1
f 27/4/13 25/4/13 26/1/13 28/1/13
f 24/4/3 19/4/3 13/4/3 22/4/3
f 21/1/1 11/1/1 17/1/1 23/1/1
f 23/1/8 17/1/8 19/4/8 24/4/8
f 27/4/1 15/4/1 9/4/1 25/4/1
f 26/1/3 14/1/3 20/1/3 28/1/3
f 28/1/16 20/1/9 15/4/9 27/4/16

usemtl default
f 14/1/10 9/2/10 11/3/11 13/4/11
f 22/4/14 13/4/11 11/1/11 21/1/14
f 25/4/15 9/4/10 14/1/10 26/1/15

v -10 -7.6859712600708 -10
v -10 7.6859712600708 -10
v 10 -7.6859712600708 -10
v 10 7.6859712600708 -10
v 10 -7.6859712600708 10
v 10 7.6859712600708 10
v -10 -7.6859712600708 10
v -10 7.6859712600708 10
# 8 vertices

# 0 normal

# 0 texture coordinate

o Cube
usemtl Mat.2
f 29/1/1 30/2/1 32/3/1 31/4/1
f 31/1/2 32/2/2 34/3/2 33/4/2
f 33/1/3 34/2/3 36/3/3 35/4/3
f 35/1/4 36/2/4 30/3/4 29/4/4
f 30/1/5 36/2/5 34/3/5 32/4/5
f 35/1/6 29/2/6 31/3/6 33/4/6

